<svg width="24" height="24" viewBox="0 0 24 24" fill="none" xmlns="http://www.w3.org/2000/svg">
<path fill-rule="evenodd" clip-rule="evenodd" d="M12 0C5.364 0 0 5.364 0 12C0 18.636 5.364 24 12 24C18.636 24 24 18.636 24 12C24 5.364 18.636 0 12 0ZM12 21.6C6.708 21.6 2.4 17.292 2.4 12C2.4 6.70799 6.708 2.39999 12 2.39999C17.292 2.39999 21.6 6.70799 21.6 12C21.6 17.292 17.292 21.6 12 21.6ZM12 10.308L16.308 6L18 7.692L13.692 12L18 16.308L16.308 18L12 13.692L7.692 18L6 16.308L10.308 12L6 7.692L7.692 6L12 10.308Z" fill="#2F4B34"/>
</svg>
