<svg width="36" height="36" viewBox="0 0 36 36" fill="none" xmlns="http://www.w3.org/2000/svg">
<g id="check_circle_outline_24px">
<path id="icon/action/check_circle_outline_24px" fill-rule="evenodd" clip-rule="evenodd" d="M18 3C9.72 3 3 9.72 3 18C3 26.28 9.72 33 18 33C26.28 33 33 26.28 33 18C33 9.72 26.28 3 18 3ZM18 30C11.385 30 6 24.615 6 18C6 11.385 11.385 6 18 6C24.615 6 30 11.385 30 18C30 24.615 24.615 30 18 30ZM15 21.255L24.885 11.37L27 13.5L15 25.5L9 19.5L11.115 17.385L15 21.255Z" fill="#FF0000" fill-opacity="0.54"/>
</g>
</svg>
